<svg width="0" height="0" class="hidden">
    <symbol xmlns="http://www.w3.org/2000/svg" viewBox="0 0 150 43" id="logo">
    <path d="M50.174216,26.5241253 C50.174216,25.2858846 51.7100174,23.945187 51.8647213,24.0733907 C52.9385017,25.0554895 55.0149826,26.0075944 56.7810105,26.0075944 C58.3680314,26.0075944 59.0851045,25.5430883 59.0851045,24.6934401 C59.0851045,23.6617056 57.7797909,23.6617056 56.1130662,23.300187 C53.3493031,22.7318969 50.5573171,21.5467426 50.5573171,18.0929401 C50.5573171,14.6643537 53.0665505,12.5480636 57.6256098,12.5480636 C61.9787456,12.5480636 63.8754355,14.0692549 63.8754355,15.720508 C63.8754355,17.1647241 62.1580139,18.4008414 62.0560976,18.2991809 C60.9551394,17.2701006 59.2398084,16.4929154 57.6773519,16.4929154 C56.1919861,16.4929154 55.4495645,16.9552981 55.4495645,17.7810574 C55.4495645,18.7626253 56.7810105,18.6869772 58.5211672,19.0723846 C61.772561,19.7930327 64.25723,21.2112364 64.25723,24.2822858 C64.25723,27.917113 61.772561,29.9524463 56.7810105,29.9524463 C51.9146341,29.9524463 50.174216,28.2762426 50.174216,26.5241253" id="Fill-1"></path><path d="M65.9225958,27.3223062 L65.9225958,15.1793185 C65.9225958,13.5803556 66.6652787,12.7800778 68.0725087,12.7800778 L68.8149303,12.7800778 C70.3002962,12.7800778 71.0688502,13.5803556 71.0688502,15.1793185 L71.0688502,19.045337 L76.3705923,19.045337 L76.3705923,15.1793185 C76.3705923,13.5803556 77.1124913,12.7800778 78.5194599,12.7800778 L79.2885366,12.7800778 C80.74777,12.7800778 81.5158014,13.5803556 81.5158014,15.1793185 L81.5158014,27.3223062 C81.5158014,28.8960531 80.74777,29.7220778 79.2885366,29.7220778 L78.5194599,29.7220778 C77.1124913,29.7220778 76.3705923,28.8960531 76.3705923,27.3223062 L76.3705923,23.3790469 L71.0688502,23.3790469 L71.0688502,27.3223062 C71.0688502,28.8960531 70.3002962,29.7220778 68.8149303,29.7220778 L68.0725087,29.7220778 C66.6652787,29.7220778 65.9225958,28.8960531 65.9225958,27.3223062" id="Fill-3"></path><path d="M99.8687979,27.5554617 L99.8687979,27.3224123 C99.8687979,25.8280296 100.379948,25.2860173 101.224808,24.3591284 L107.522979,17.1645914 L102.325505,17.1645914 C100.840923,17.1645914 100.071063,16.6217827 100.071063,15.1539432 L100.071063,14.9208938 C100.071063,13.5042827 100.840923,12.9121037 102.325505,12.9121037 L111.595714,12.9121037 C113.464181,12.9121037 114.206864,13.9164988 114.206864,14.9208938 L114.206864,15.1794247 C114.206864,16.6472642 113.670627,17.2407704 112.850854,18.1185543 L106.422282,25.3117642 L112.108171,25.3117642 C113.593014,25.3117642 114.361307,25.8797889 114.361307,27.3481593 L114.361307,27.5554617 C114.361307,28.9749926 113.593014,29.5923877 112.108171,29.5923877 L102.455122,29.5923877 C100.610958,29.5923877 99.8687979,28.5598568 99.8687979,27.5554617" id="Fill-5"></path><path d="M93.3151568,23.3992463 C93.3151568,25.1574685 91.9813589,26.3373142 90.2550523,26.3373142 C89.0132404,26.3373142 88.2094077,25.6809006 88.2094077,24.6677463 C88.2094077,22.9740241 90.4787456,22.2700981 92.1862369,22.2273636 L93.3151568,22.2273636 L93.3151568,23.3992463 Z M90.3909408,12.4753883 C87.0763066,12.4753883 83.8952091,14.0764747 83.8952091,16.186129 C83.8952091,18.8085981 87.1207317,18.7440981 87.1207317,18.7440981 C87.4690767,17.3240364 88.6301394,16.5975488 90.1405923,16.5975488 C92.4569686,16.5975488 93.3151568,17.7397031 93.3151568,19.3872401 L92.1812718,19.3872401 C85.5478223,19.3872401 83.0482578,22.0513821 83.0482578,25.0908451 C83.0482578,28.0281167 85.4882404,29.9939068 88.6972997,29.9939068 C90.9347561,29.9939068 93.0776132,29.1654932 93.4818815,27.5859068 C93.685453,28.7933574 94.8133275,29.8633142 96.3091463,29.8633142 C97.6358885,29.8633142 98.2659408,29.4091599 98.3236934,29.2459191 L98.3236934,19.0294377 C98.3236934,14.8398574 95.5212544,12.4753883 90.3909408,12.4753883 L90.3909408,12.4753883 Z" id="Fill-7"></path><path d="M125.682073,23.3992463 C125.682073,25.1574685 124.347491,26.3373142 122.622491,26.3373142 C121.379634,26.3373142 120.576585,25.6809006 120.576585,24.6677463 C120.576585,22.9740241 122.845662,22.2700981 124.553415,22.2273636 L125.682073,22.2273636 L125.682073,23.3992463 Z M122.757334,12.4753883 C119.4427,12.4753883 116.262648,14.0764747 116.262648,16.186129 C116.262648,18.8085981 119.487648,18.7440981 119.487648,18.7440981 C119.837561,17.3240364 120.997578,16.5975488 122.505941,16.5975488 C124.824669,16.5975488 125.682073,17.7397031 125.682073,19.3872401 L124.548972,19.3872401 C117.913955,19.3872401 115.41622,22.0513821 115.41622,25.0908451 C115.41622,28.0281167 117.855157,29.9939068 121.064216,29.9939068 C123.302456,29.9939068 125.446098,29.1654932 125.849321,27.5859068 C126.053676,28.7933574 127.181028,29.8633142 128.674756,29.8633142 C130.003589,29.8633142 130.633641,29.4091599 130.691132,29.2459191 L130.691132,19.0294377 C130.691132,14.8398574 127.887909,12.4753883 122.757334,12.4753883 L122.757334,12.4753883 Z" id="Fill-9"></path><path d="M132.585601,27.3223062 L132.585601,15.2552321 C132.585601,13.6047753 133.406159,12.7800778 134.865653,12.7800778 L136.324103,12.7800778 C137.682726,12.7800778 138.143702,13.1163802 138.604939,14.1728 L141.292395,20.8518679 L144.008336,14.1728 C144.494922,13.037016 145.03142,12.7800778 146.209469,12.7800778 L147.643354,12.7800778 C149.1802,12.7800778 149.999974,13.6047753 149.999974,15.2552321 L149.999974,27.3223062 C149.999974,28.8960531 149.461646,29.7220778 148.003197,29.7220778 L147.183423,29.7220778 C145.77358,29.7220778 145.184817,28.8960531 145.184817,27.3223062 L145.184817,20.1824481 L143.444399,25.0794049 C143.214434,25.7252012 143.187517,26.3420654 141.26757,26.3420654 C139.347099,26.3420654 139.398057,25.7485593 139.116873,25.0794049 L137.401542,20.3857691 L137.401542,27.3223062 C137.401542,28.8960531 136.889347,29.7220778 135.404242,29.7220778 L134.583162,29.7220778 C133.173841,29.7220778 132.585601,28.8960531 132.585601,27.3223062" id="Fill-11"></path><path d="M21.5007963,0 C9.62722222,0 0,9.6245679 0,21.4997346 C0,33.3719815 9.62722222,43 21.5007963,43 C33.3741049,43 43,33.3719815 43,21.4997346 C43,9.6245679 33.3741049,0 21.5007963,0" id="Fill-13" opacity="0.3"></path><path d="M32.4760912,29.5723299 C30.4801714,31.7675356 26.9034559,35.182559 26.7518408,35.3296311 C26.2821973,35.7762848 25.6775541,36 25.0749877,36 C24.4324407,36 23.7950859,35.7480614 23.3179136,35.2506575 C22.3895305,34.280707 22.4248381,32.7478434 23.3945,31.821393 C23.4298077,31.7861786 26.9974366,28.3809945 28.874972,26.3113697 C29.7628552,25.3336513 30.2096526,24.0783602 30.13047,22.7829351 C30.0463548,21.41009 29.3830385,20.121656 28.2602038,19.1550715 C26.7863696,17.8842447 23.875307,17.6017524 22.0551464,19.2314558 C20.9709943,20.1995938 19.657083,21.6257784 19.6448811,21.6402785 C18.7333729,22.6252469 17.1985292,22.6894615 16.210175,21.7847612 C15.2233785,20.8785074 15.1561383,19.3433134 16.0653099,18.3573092 C16.1260598,18.2910232 17.5505671,16.7449542 18.8117766,15.6178333 C22.2690692,12.5231059 27.9330889,12.4617396 31.4373718,15.4837078 C33.5592049,17.3117512 34.8170394,19.801101 34.9816353,22.4890499 C35.1418177,25.099061 34.2497807,27.6161163 32.4760912,29.5723299 M17.7831821,29.745036 C15.5336184,29.745036 13.2871701,29.0026847 11.5625479,27.5151337 C9.44149358,25.6873492 8.18365906,23.1998119 8.01776509,20.5103094 C7.86069804,17.9013341 8.74910046,15.3845377 10.5256457,13.4293598 C12.5194886,11.2323415 16.0967233,7.81654137 16.2475596,7.67205861 C17.2172215,6.74534933 18.7538825,6.78237628 19.6825252,7.74999644 C20.6088314,8.71891126 20.5758603,10.2538463 19.6056792,11.179261 C19.5690735,11.2139575 16.0040407,14.6188827 14.1252072,16.686695 C13.237324,17.6685563 12.7897478,18.9209991 12.8689304,20.2151296 C12.9538245,21.5890104 13.6171407,22.8777034 14.7386774,23.8450646 C16.2143289,25.1187396 19.124353,25.397089 20.945552,23.7704929 C22.0284061,22.7992477 23.3436155,21.3740988 23.3568559,21.3601166 C24.2647294,20.3730767 25.8032077,20.3098978 26.7897446,21.2174463 C27.7773199,22.1226644 27.8432621,23.6588942 26.9346097,24.6448983 C26.8743791,24.7075593 25.4477948,26.2528516 24.1878834,27.381526 C22.4326266,28.9542648 20.1064765,29.745036 17.7831821,29.745036" id="Fill-15" style="
    fill: white;
"></path></symbol>
    <symbol xmlns="http://www.w3.org/2000/svg" viewBox="0 0 150 43" id="logoblack">
    <path d="M50.174216,26.5241253 C50.174216,25.2858846 51.7100174,23.945187 51.8647213,24.0733907 C52.9385017,25.0554895 55.0149826,26.0075944 56.7810105,26.0075944 C58.3680314,26.0075944 59.0851045,25.5430883 59.0851045,24.6934401 C59.0851045,23.6617056 57.7797909,23.6617056 56.1130662,23.300187 C53.3493031,22.7318969 50.5573171,21.5467426 50.5573171,18.0929401 C50.5573171,14.6643537 53.0665505,12.5480636 57.6256098,12.5480636 C61.9787456,12.5480636 63.8754355,14.0692549 63.8754355,15.720508 C63.8754355,17.1647241 62.1580139,18.4008414 62.0560976,18.2991809 C60.9551394,17.2701006 59.2398084,16.4929154 57.6773519,16.4929154 C56.1919861,16.4929154 55.4495645,16.9552981 55.4495645,17.7810574 C55.4495645,18.7626253 56.7810105,18.6869772 58.5211672,19.0723846 C61.772561,19.7930327 64.25723,21.2112364 64.25723,24.2822858 C64.25723,27.917113 61.772561,29.9524463 56.7810105,29.9524463 C51.9146341,29.9524463 50.174216,28.2762426 50.174216,26.5241253" id="Fill-1"></path><path d="M65.9225958,27.3223062 L65.9225958,15.1793185 C65.9225958,13.5803556 66.6652787,12.7800778 68.0725087,12.7800778 L68.8149303,12.7800778 C70.3002962,12.7800778 71.0688502,13.5803556 71.0688502,15.1793185 L71.0688502,19.045337 L76.3705923,19.045337 L76.3705923,15.1793185 C76.3705923,13.5803556 77.1124913,12.7800778 78.5194599,12.7800778 L79.2885366,12.7800778 C80.74777,12.7800778 81.5158014,13.5803556 81.5158014,15.1793185 L81.5158014,27.3223062 C81.5158014,28.8960531 80.74777,29.7220778 79.2885366,29.7220778 L78.5194599,29.7220778 C77.1124913,29.7220778 76.3705923,28.8960531 76.3705923,27.3223062 L76.3705923,23.3790469 L71.0688502,23.3790469 L71.0688502,27.3223062 C71.0688502,28.8960531 70.3002962,29.7220778 68.8149303,29.7220778 L68.0725087,29.7220778 C66.6652787,29.7220778 65.9225958,28.8960531 65.9225958,27.3223062" id="Fill-3"></path><path d="M99.8687979,27.5554617 L99.8687979,27.3224123 C99.8687979,25.8280296 100.379948,25.2860173 101.224808,24.3591284 L107.522979,17.1645914 L102.325505,17.1645914 C100.840923,17.1645914 100.071063,16.6217827 100.071063,15.1539432 L100.071063,14.9208938 C100.071063,13.5042827 100.840923,12.9121037 102.325505,12.9121037 L111.595714,12.9121037 C113.464181,12.9121037 114.206864,13.9164988 114.206864,14.9208938 L114.206864,15.1794247 C114.206864,16.6472642 113.670627,17.2407704 112.850854,18.1185543 L106.422282,25.3117642 L112.108171,25.3117642 C113.593014,25.3117642 114.361307,25.8797889 114.361307,27.3481593 L114.361307,27.5554617 C114.361307,28.9749926 113.593014,29.5923877 112.108171,29.5923877 L102.455122,29.5923877 C100.610958,29.5923877 99.8687979,28.5598568 99.8687979,27.5554617" id="Fill-5"></path><path d="M93.3151568,23.3992463 C93.3151568,25.1574685 91.9813589,26.3373142 90.2550523,26.3373142 C89.0132404,26.3373142 88.2094077,25.6809006 88.2094077,24.6677463 C88.2094077,22.9740241 90.4787456,22.2700981 92.1862369,22.2273636 L93.3151568,22.2273636 L93.3151568,23.3992463 Z M90.3909408,12.4753883 C87.0763066,12.4753883 83.8952091,14.0764747 83.8952091,16.186129 C83.8952091,18.8085981 87.1207317,18.7440981 87.1207317,18.7440981 C87.4690767,17.3240364 88.6301394,16.5975488 90.1405923,16.5975488 C92.4569686,16.5975488 93.3151568,17.7397031 93.3151568,19.3872401 L92.1812718,19.3872401 C85.5478223,19.3872401 83.0482578,22.0513821 83.0482578,25.0908451 C83.0482578,28.0281167 85.4882404,29.9939068 88.6972997,29.9939068 C90.9347561,29.9939068 93.0776132,29.1654932 93.4818815,27.5859068 C93.685453,28.7933574 94.8133275,29.8633142 96.3091463,29.8633142 C97.6358885,29.8633142 98.2659408,29.4091599 98.3236934,29.2459191 L98.3236934,19.0294377 C98.3236934,14.8398574 95.5212544,12.4753883 90.3909408,12.4753883 L90.3909408,12.4753883 Z" id="Fill-7"></path><path d="M125.682073,23.3992463 C125.682073,25.1574685 124.347491,26.3373142 122.622491,26.3373142 C121.379634,26.3373142 120.576585,25.6809006 120.576585,24.6677463 C120.576585,22.9740241 122.845662,22.2700981 124.553415,22.2273636 L125.682073,22.2273636 L125.682073,23.3992463 Z M122.757334,12.4753883 C119.4427,12.4753883 116.262648,14.0764747 116.262648,16.186129 C116.262648,18.8085981 119.487648,18.7440981 119.487648,18.7440981 C119.837561,17.3240364 120.997578,16.5975488 122.505941,16.5975488 C124.824669,16.5975488 125.682073,17.7397031 125.682073,19.3872401 L124.548972,19.3872401 C117.913955,19.3872401 115.41622,22.0513821 115.41622,25.0908451 C115.41622,28.0281167 117.855157,29.9939068 121.064216,29.9939068 C123.302456,29.9939068 125.446098,29.1654932 125.849321,27.5859068 C126.053676,28.7933574 127.181028,29.8633142 128.674756,29.8633142 C130.003589,29.8633142 130.633641,29.4091599 130.691132,29.2459191 L130.691132,19.0294377 C130.691132,14.8398574 127.887909,12.4753883 122.757334,12.4753883 L122.757334,12.4753883 Z" id="Fill-9"></path><path d="M132.585601,27.3223062 L132.585601,15.2552321 C132.585601,13.6047753 133.406159,12.7800778 134.865653,12.7800778 L136.324103,12.7800778 C137.682726,12.7800778 138.143702,13.1163802 138.604939,14.1728 L141.292395,20.8518679 L144.008336,14.1728 C144.494922,13.037016 145.03142,12.7800778 146.209469,12.7800778 L147.643354,12.7800778 C149.1802,12.7800778 149.999974,13.6047753 149.999974,15.2552321 L149.999974,27.3223062 C149.999974,28.8960531 149.461646,29.7220778 148.003197,29.7220778 L147.183423,29.7220778 C145.77358,29.7220778 145.184817,28.8960531 145.184817,27.3223062 L145.184817,20.1824481 L143.444399,25.0794049 C143.214434,25.7252012 143.187517,26.3420654 141.26757,26.3420654 C139.347099,26.3420654 139.398057,25.7485593 139.116873,25.0794049 L137.401542,20.3857691 L137.401542,27.3223062 C137.401542,28.8960531 136.889347,29.7220778 135.404242,29.7220778 L134.583162,29.7220778 C133.173841,29.7220778 132.585601,28.8960531 132.585601,27.3223062" id="Fill-11"></path><path d="M21.5007963,0 C9.62722222,0 0,9.6245679 0,21.4997346 C0,33.3719815 9.62722222,43 21.5007963,43 C33.3741049,43 43,33.3719815 43,21.4997346 C43,9.6245679 33.3741049,0 21.5007963,0" id="Fill-13"></path><path d="M32.4760912,29.5723299 C30.4801714,31.7675356 26.9034559,35.182559 26.7518408,35.3296311 C26.2821973,35.7762848 25.6775541,36 25.0749877,36 C24.4324407,36 23.7950859,35.7480614 23.3179136,35.2506575 C22.3895305,34.280707 22.4248381,32.7478434 23.3945,31.821393 C23.4298077,31.7861786 26.9974366,28.3809945 28.874972,26.3113697 C29.7628552,25.3336513 30.2096526,24.0783602 30.13047,22.7829351 C30.0463548,21.41009 29.3830385,20.121656 28.2602038,19.1550715 C26.7863696,17.8842447 23.875307,17.6017524 22.0551464,19.2314558 C20.9709943,20.1995938 19.657083,21.6257784 19.6448811,21.6402785 C18.7333729,22.6252469 17.1985292,22.6894615 16.210175,21.7847612 C15.2233785,20.8785074 15.1561383,19.3433134 16.0653099,18.3573092 C16.1260598,18.2910232 17.5505671,16.7449542 18.8117766,15.6178333 C22.2690692,12.5231059 27.9330889,12.4617396 31.4373718,15.4837078 C33.5592049,17.3117512 34.8170394,19.801101 34.9816353,22.4890499 C35.1418177,25.099061 34.2497807,27.6161163 32.4760912,29.5723299 M17.7831821,29.745036 C15.5336184,29.745036 13.2871701,29.0026847 11.5625479,27.5151337 C9.44149358,25.6873492 8.18365906,23.1998119 8.01776509,20.5103094 C7.86069804,17.9013341 8.74910046,15.3845377 10.5256457,13.4293598 C12.5194886,11.2323415 16.0967233,7.81654137 16.2475596,7.67205861 C17.2172215,6.74534933 18.7538825,6.78237628 19.6825252,7.74999644 C20.6088314,8.71891126 20.5758603,10.2538463 19.6056792,11.179261 C19.5690735,11.2139575 16.0040407,14.6188827 14.1252072,16.686695 C13.237324,17.6685563 12.7897478,18.9209991 12.8689304,20.2151296 C12.9538245,21.5890104 13.6171407,22.8777034 14.7386774,23.8450646 C16.2143289,25.1187396 19.124353,25.397089 20.945552,23.7704929 C22.0284061,22.7992477 23.3436155,21.3740988 23.3568559,21.3601166 C24.2647294,20.3730767 25.8032077,20.3098978 26.7897446,21.2174463 C27.7773199,22.1226644 27.8432621,23.6588942 26.9346097,24.6448983 C26.8743791,24.7075593 25.4477948,26.2528516 24.1878834,27.381526 C22.4326266,28.9542648 20.1064765,29.745036 17.7831821,29.745036" id="Fill-15" style="
    fill: white;
"></path></symbol>
    <symbol xmlns="http://www.w3.org/2000/svg" viewBox="0 0 73 24" id="apple" style="width:73px;height:24px;">
    <g fill="none" fill-rule="evenodd"><path fill="#242424" d="M11.993 0C5.37 0 0 5.371 0 12c0 6.627 5.368 12 11.993 12h49.014C67.63 24 73 18.629 73 12c0-6.627-5.368-12-11.993-12H11.993z"></path><g fill="#FFF"><path d="M18.286 7.88c.391-.492.657-1.153.587-1.828-.573.028-1.273.38-1.678.873-.363.421-.685 1.11-.601 1.757.643.056 1.286-.323 1.692-.802M18.866 8.809c-.935-.056-1.73.533-2.176.533-.446 0-1.13-.505-1.868-.492-.962.015-1.855.561-2.343 1.43-1.004 1.74-.265 4.32.711 5.737.474.7 1.046 1.472 1.799 1.445.711-.029.99-.463 1.855-.463.864 0 1.115.463 1.868.449.781-.015 1.27-.702 1.744-1.403.544-.799.766-1.57.78-1.613-.014-.014-1.506-.59-1.52-2.314-.014-1.444 1.172-2.131 1.228-2.174-.67-.995-1.716-1.107-2.078-1.135M32.659 17.374V9.632h-.05l-3.156 7.742h-1.204l-3.163-7.742h-.05v7.742h-1.48V6.854h1.878l3.388 8.384h.058l3.38-8.384h1.886v10.52H32.66M42.327 17.374h-1.501v-1.298h-.037c-.42.919-1.196 1.437-2.364 1.437-1.661 0-2.677-1.087-2.677-2.844V9.704h1.567v4.66c0 1.166.551 1.793 1.632 1.793 1.132 0 1.814-.788 1.814-1.983v-4.47h1.566v7.67M46.621 9.566c1.777 0 2.93.991 2.981 2.406H48.13c-.087-.744-.631-1.21-1.509-1.21-.849 0-1.414.415-1.414 1.028 0 .48.348.809 1.175.998l1.24.285c1.56.364 2.155.977 2.155 2.085 0 1.4-1.299 2.362-3.098 2.362-1.908 0-3.054-.94-3.199-2.399h1.552c.146.802.69 1.196 1.647 1.196.943 0 1.523-.394 1.523-1.02 0-.496-.282-.788-1.117-.978l-1.24-.291c-1.45-.336-2.169-1.036-2.169-2.15 0-1.372 1.19-2.312 2.945-2.312M50.987 17.374h1.567v-7.67h-1.567v7.67zm-.123-9.696c0-.503.406-.904.907-.904.5 0 .9.4.9.904a.902.902 0 0 1-.9.904.908.908 0 0 1-.907-.904zM59.169 12.344c-.16-.817-.77-1.466-1.792-1.466-1.211 0-2.01 1.014-2.01 2.661 0 1.684.806 2.661 2.025 2.661.964 0 1.595-.532 1.777-1.421h1.509c-.167 1.633-1.466 2.741-3.301 2.741-2.183 0-3.605-1.502-3.605-3.98 0-2.436 1.422-3.974 3.59-3.974 1.966 0 3.163 1.269 3.301 2.778h-1.494"></path></g></g></symbol>
    <symbol xmlns="http://www.w3.org/2000/svg" viewBox="0 0 18 20" id="play"><path fill-rule="evenodd" d="M16.465 12.586L4.52 19.604A3 3 0 0 1 0 17.018V2.982A3 3 0 0 1 4.52.395l11.945 7.018a3 3 0 0 1 0 5.173z"></path>
    </symbol>
    <symbol xmlns="http://www.w3.org/2000/svg" viewBox="0 0 32 32" id="search"><path d="M21.688 14.875c0-2.25-.75-4.125-2.313-5.688s-3.438-2.313-5.688-2.313c-2.188 0-4.063.75-5.625 2.313s-2.375 3.438-2.375 5.688c0 2.188.813 4.063 2.375 5.625s3.438 2.375 5.625 2.375c2.25 0 4.125-.813 5.688-2.375s2.313-3.438 2.313-5.625zm9.187 14.813c0 .625-.25 1.188-.688 1.625s-1 .688-1.625.688-1.188-.25-1.625-.687l-6.125-6.125c-2.125 1.5-4.5 2.25-7.125 2.25-1.688 0-3.313-.313-4.875-1s-2.875-1.563-4-2.688c-1.125-1.125-2-2.438-2.688-4-.625-1.563-1-3.188-1-4.875 0-1.75.375-3.375 1-4.875.688-1.563 1.563-2.938 2.688-4.063s2.438-2 4-2.688c1.563-.626 3.188-.94 4.875-.94 1.75 0 3.375.314 4.938.94 1.5.687 2.875 1.562 4 2.687s2 2.5 2.688 4.063c.625 1.5 1 3.125 1 4.875 0 2.625-.75 5-2.25 7.125l6.125 6.125c.438.438.688.938.688 1.563z"></path></symbol>
    <symbol viewBox="0 0 512 512" xmlns="http://www.w3.org/2000/svg" id="facebook">
    <path d="M437 0H75C33.648 0 0 33.648 0 75v362c0 41.352 33.648 75 75 75h151V331h-60v-90h60v-61c0-49.629 40.371-90 90-90h91v90h-91v61h91l-15 90h-76v181h121c41.352 0 75-33.648 75-75V75c0-41.352-33.648-75-75-75zm0 0"></path>
  </symbol>
    <symbol viewBox="0 0 511 511.9" xmlns="http://www.w3.org/2000/svg" id="instagram">
    <path d="M510.95 150.5c-1.2-27.2-5.598-45.898-11.9-62.102-6.5-17.199-16.5-32.597-29.6-45.398-12.802-13-28.302-23.102-45.302-29.5-16.296-6.3-34.898-10.7-62.097-11.898C334.648.3 325.949 0 256.449 0s-78.199.3-105.5 1.5c-27.199 1.2-45.898 5.602-62.097 11.898-17.204 6.5-32.602 16.5-45.403 29.602-13 12.8-23.097 28.3-29.5 45.3-6.3 16.302-10.699 34.9-11.898 62.098C.75 177.801.449 186.5.449 256s.301 78.2 1.5 105.5c1.2 27.2 5.602 45.898 11.903 62.102 6.5 17.199 16.597 32.597 29.597 45.398 12.801 13 28.301 23.102 45.301 29.5 16.3 6.3 34.898 10.7 62.102 11.898 27.296 1.204 36 1.5 105.5 1.5s78.199-.296 105.5-1.5c27.199-1.199 45.898-5.597 62.097-11.898a130.934 130.934 0 0 0 74.903-74.898c6.296-16.301 10.699-34.903 11.898-62.102 1.2-27.3 1.5-36 1.5-105.5s-.102-78.2-1.3-105.5zm-46.098 209c-1.102 25-5.301 38.5-8.801 47.5-8.602 22.3-26.301 40-48.602 48.602-9 3.5-22.597 7.699-47.5 8.796-27 1.204-35.097 1.5-103.398 1.5s-76.5-.296-103.403-1.5c-25-1.097-38.5-5.296-47.5-8.796C94.551 451.5 84.45 445 76.25 436.5c-8.5-8.3-15-18.3-19.102-29.398-3.5-9-7.699-22.602-8.796-47.5-1.204-27-1.5-35.102-1.5-103.403s.296-76.5 1.5-103.398c1.097-25 5.296-38.5 8.796-47.5C61.25 94.199 67.75 84.1 76.352 75.898c8.296-8.5 18.296-15 29.398-19.097 9-3.5 22.602-7.7 47.5-8.801 27-1.2 35.102-1.5 103.398-1.5 68.403 0 76.5.3 103.403 1.5 25 1.102 38.5 5.3 47.5 8.8 11.097 4.098 21.199 10.598 29.398 19.098 8.5 8.301 15 18.301 19.102 29.403 3.5 9 7.699 22.597 8.8 47.5 1.2 27 1.5 35.097 1.5 103.398s-.3 76.301-1.5 103.301zm0 0"></path>
    <path d="M256.45 124.5c-72.598 0-131.5 58.898-131.5 131.5s58.902 131.5 131.5 131.5c72.6 0 131.5-58.898 131.5-131.5s-58.9-131.5-131.5-131.5zm0 216.8c-47.098 0-85.302-38.198-85.302-85.3s38.204-85.3 85.301-85.3c47.102 0 85.301 38.198 85.301 85.3s-38.2 85.3-85.3 85.3zm167.402-222c0 16.954-13.747 30.7-30.704 30.7-16.953 0-30.699-13.746-30.699-30.7 0-16.956 13.746-30.698 30.7-30.698 16.956 0 30.703 13.742 30.703 30.699zm0 0"></path>
  </symbol>
  <symbol xmlns="http://www.w3.org/2000/svg" viewBox="0 0 504 504" id="snapchat">
    <path d="M377.6 0H126C56.8 0 0 56.8 0 126.4V378c0 69.2 56.8 126 126 126h251.6c69.6 0 126.4-56.8 126.4-126.4V126.4C504 56.8 447.2 0 377.6 0zm25.2 334.8c-1.2 2.4-4 4.8-8.8 7.2-6.4 3.2-16.4 5.6-29.6 7.6-1.2.4-2.4 1.2-3.2 2.4-.8 1.2-1.2 4-2 7.6l-.4 2c-.4 1.6-.8 3.6-1.2 5.2-.8 2-2 3.2-4.4 3.2-1.2 0-3.2 0-6.4-.8-4.4-.8-10-2-17.2-2-4.4 0-8.4.4-12.4 1.2-8.4 1.6-16 6.4-24 12-10.8 7.6-22.8 16.4-41.2 16.4h-3.6c-18.4 0-30.4-8.8-41.6-16.4-7.6-5.2-14.8-10.4-23.6-12-4-.8-8.4-1.2-12.4-1.2-7.2 0-12.8 1.2-16.8 2h-.4c-2 .4-4.4.8-6.4.8-2.4 0-4-.8-4.8-3.2-1.6-2.8-2.4-4.8-2.8-6.8l-.4-1.2c-.8-3.2-1.2-6-2.4-7.6-.4-1.2-1.6-2-2.8-2-13.2-2-23.2-4.8-30-7.6-4.4-2-7.6-4.4-8.8-6.8-.4-.8-.4-1.6-.4-2v-.8c1.6-1.6 2.4-2.4 3.6-2.8 10.4-1.6 20-5.6 28.4-11.2 7.2-4.4 14-10.4 20-17.6 10.4-12 15.6-23.6 16.4-25.6v-.4c2.8-5.2 3.2-10 1.6-13.6-3.2-7.2-12.8-10.4-19.6-12.4l-1.2-.4c-1.2-.4-2.4-.8-3.2-1.2-4.8-2-8.4-4-10.4-6-3.2-2.8-3.6-5.6-3.2-7.2.4-2 2-4.4 4.8-6 3.6-2 8.4-2.8 11.2-1.2 9.2 4.4 16.8 5.6 22.4 2.8 1.6-.8 2.4-2.4 2.4-4 0-2.4-.4-4.8-.4-7.2v-.4c-1.2-20.8-2.8-46.8 3.6-61.6 4.8-10.4 10.8-19.2 18.4-26.4 6.4-6 13.6-10.8 22-14.4 14.4-6.4 27.6-7.2 34.4-7.2h6c6.8 0 20 .8 34.4 7.2 8.4 3.6 15.6 8.4 22 14.4 7.6 7.2 14 16 18.4 26.4 6.8 14.8 4.8 40.8 3.6 61.2v1.2c0 1.6-.4 2.8-.4 4.4v2c0 1.6.8 3.2 2.4 4 1.6.8 3.6 1.2 5.6 1.2h.8c4.4-.4 9.2-1.6 14.4-4 2-.8 4-.8 4.8-.8 2 0 3.6.4 5.6 1.2 4.4 1.6 7.6 4.8 7.6 8 0 1.2-.4 3.2-2.8 5.6-2.4 2.4-6 4.4-11.2 6.8-.8.4-2 .8-2.8.8l-1.2.4c-6.4 2-16.4 5.2-19.6 12.4-1.6 3.6-1.2 8.4 1.6 14 0 .4 0 .4.4.8 3.6 8 23.6 47.2 64.8 54 1.6.4 2.8 1.6 2.8 3.6 0 .8-.4 1.6-.4 2z"></path>
  </symbol>
  <symbol xmlns="http://www.w3.org/2000/svg" viewBox="0 0 504.4 504.4" id="twitter">
    <path d="M377.6.2H126.4C56.8.2 0 57 0 126.6v251.6c0 69.2 56.8 126 126.4 126H378c69.6 0 126.4-56.8 126.4-126.4V126.6C504 57 447.2.2 377.6.2zm-.4 188.8v8.4c0 84-64.8 180.8-183.6 180.8-36.4 0-70.4-10.4-98.8-28.4 5.2.4 10 .8 15.2.8 30.4 0 58-10 80-27.2-28.4-.4-52-18.8-60.4-44 4 .8 8 1.2 12 1.2 6 0 12-.8 17.2-2.4-28.8-6-50.8-31.6-50.8-62.4v-.8c8 4.8 18.4 7.6 28.8 8-17.2-11.2-28.8-30.8-28.8-52.8 0-11.6 3.2-22.4 8.8-32 32 38.4 79.2 63.6 132.8 66.4-1.2-4.8-1.6-9.6-1.6-14.4 0-35.2 28.8-63.6 64.4-63.6 18.4 0 35.2 7.6 47.2 20 14.8-2.8 28.4-8 40.8-15.6-4.8 14.8-15.2 27.2-28.4 35.2 13.2-1.6 25.6-4.8 37.2-10-8.8 12.8-19.6 24-32 32.8z"></path>
  </symbol>
</svg>


